<svg width="51" height="56" viewBox="0 0 51 56" fill="none"
  xmlns="http://www.w3.org/2000/svg">
  <rect x="1.5" y="1.5" width="48" height="48" stroke="black" stroke-width="3"/>
  <g filter="url(#filter0_d_5_12)">
    <path d="M9.24377 20.5062V24.1188C9.24377 33.0863 16.5325 40.375 25.5 40.375M25.5 40.375C34.4675 40.375 41.7563 33.0863 41.7563 24.1188V20.5062M25.5 40.375V46.75M22.5463 13.6637C24.4588 12.9625 26.5413 12.9625 28.4538 13.6637M23.8 18.1688C24.9263 17.8713 26.095 17.8713 27.2213 18.1688M25.5 32.9375C30.1963 32.9375 34 29.1338 34 24.4375V12.75C34 8.05375 30.1963 4.25 25.5 4.25C20.8038 4.25 17 8.05375 17 12.75V24.4375C17 29.1338 20.8038 32.9375 25.5 32.9375Z" stroke="#13F94D" stroke-width="1.5" stroke-linecap="round" stroke-linejoin="round" shape-rendering="crispEdges"/>
  </g>
  <defs>
    <filter id="filter0_d_5_12" x="4.49377" y="3.5" width="42.0125" height="52" filterUnits="userSpaceOnUse" color-interpolation-filters="sRGB">
      <feFlood flood-opacity="0" result="BackgroundImageFix"/>
      <feColorMatrix in="SourceAlpha" type="matrix" values="0 0 0 0 0 0 0 0 0 0 0 0 0 0 0 0 0 0 127 0" result="hardAlpha"/>
      <feOffset dy="4"/>
      <feGaussianBlur stdDeviation="2"/>
      <feComposite in2="hardAlpha" operator="out"/>
      <feColorMatrix type="matrix" values="0 0 0 0 0 0 0 0 0 0 0 0 0 0 0 0 0 0 0.25 0"/>
      <feBlend mode="normal" in2="BackgroundImageFix" result="effect1_dropShadow_5_12"/>
      <feBlend mode="normal" in="SourceGraphic" in2="effect1_dropShadow_5_12" result="shape"/>
    </filter>
  </defs>
</svg>
