<svg width="113" height="101" viewBox="0 0 113 101" fill="none"
  xmlns="http://www.w3.org/2000/svg">
  <rect x="1.5" y="1.5" width="110" height="97" fill="black"/>
  <rect x="1.5" y="1.5" width="110" height="97" stroke="black" stroke-width="3"/>
  <g filter="url(#filter0_d_30_454)">
    <path d="M20.4812 40.2083V47.2917C20.4812 64.875 36.6308 79.1667 56.5 79.1667M56.5 79.1667C76.3692 79.1667 92.5187 64.875 92.5187 47.2917V40.2083M56.5 79.1667V91.6667M49.9554 26.7917C54.1929 25.4167 58.8071 25.4167 63.0446 26.7917M52.7333 35.625C55.2287 35.0417 57.8183 35.0417 60.3138 35.625M56.5 64.5833C66.9054 64.5833 75.3333 57.125 75.3333 47.9167V25C75.3333 15.7917 66.9054 8.33334 56.5 8.33334C46.0946 8.33334 37.6667 15.7917 37.6667 25V47.9167C37.6667 57.125 46.0946 64.5833 56.5 64.5833Z" stroke="#F30A0A" stroke-width="1.5" stroke-linecap="round" stroke-linejoin="round" shape-rendering="crispEdges"/>
  </g>
  <defs>
    <filter id="filter0_d_30_454" x="15.7312" y="7.58334" width="81.5375" height="92.8333" filterUnits="userSpaceOnUse" color-interpolation-filters="sRGB">
      <feFlood flood-opacity="0" result="BackgroundImageFix"/>
      <feColorMatrix in="SourceAlpha" type="matrix" values="0 0 0 0 0 0 0 0 0 0 0 0 0 0 0 0 0 0 127 0" result="hardAlpha"/>
      <feOffset dy="4"/>
      <feGaussianBlur stdDeviation="2"/>
      <feComposite in2="hardAlpha" operator="out"/>
      <feColorMatrix type="matrix" values="0 0 0 0 0 0 0 0 0 0 0 0 0 0 0 0 0 0 0.25 0"/>
      <feBlend mode="normal" in2="BackgroundImageFix" result="effect1_dropShadow_30_454"/>
      <feBlend mode="normal" in="SourceGraphic" in2="effect1_dropShadow_30_454" result="shape"/>
    </filter>
  </defs>
</svg>
